<?xml version="1.0" standalone="no"?><!DOCTYPE svg PUBLIC "-//W3C//DTD SVG 1.1//EN" "http://www.w3.org/Graphics/SVG/1.1/DTD/svg11.dtd"><svg t="1782459756438" class="icon" viewBox="0 0 1024 1024" version="1.1" xmlns="http://www.w3.org/2000/svg" p-id="8044" xmlns:xlink="http://www.w3.org/1999/xlink" width="200" height="200"><path d="M307.2 409.6h37.546667a169.301333 169.301333 0 0 0 25.258666 60.074667L341.333333 496.298667a34.133333 34.133333 0 0 0 49.834667 49.834666l26.624-26.624a169.301333 169.301333 0 0 0 60.074667 23.210667v37.546667a34.133333 34.133333 0 0 0 68.266666 0v-37.546667a169.301333 169.301333 0 0 0 60.074667-25.258667l26.624 28.672a34.133333 34.133333 0 1 0 49.834667-49.834666l-26.624-26.624A169.301333 169.301333 0 0 0 679.253333 409.6h37.546667a34.133333 34.133333 0 0 0 0-68.266667h-37.546667a169.301333 169.301333 0 0 0-25.258666-60.074666l28.672-26.624A34.133333 34.133333 0 1 0 632.832 204.8l-26.624 26.624A169.301333 169.301333 0 0 0 546.133333 208.213333V170.666667a34.133333 34.133333 0 0 0-68.266666 0v37.546666a169.301333 169.301333 0 0 0-60.074667 25.258667L391.168 204.8a34.133333 34.133333 0 1 0-49.834667 49.834667l26.624 26.624a169.301333 169.301333 0 0 0-23.210666 60.074666H307.2a34.133333 34.133333 0 0 0 0 68.266667z m204.8-136.533333A102.4 102.4 0 1 1 409.6 375.466667 102.4 102.4 0 0 1 512 273.066667z" fill="#C6C4CD" p-id="8045"></path><path d="M512 375.466667m-34.133333 0a34.133333 34.133333 0 1 0 68.266666 0 34.133333 34.133333 0 1 0-68.266666 0Z" fill="#C6C4CD" p-id="8046"></path><path d="M955.733333 0H68.266667a68.266667 68.266667 0 0 0-68.266667 68.266667v750.933333a68.266667 68.266667 0 0 0 68.266667 68.266667h329.728L341.333333 955.733333H170.666667a34.133333 34.133333 0 0 0 0 68.266667h682.666666a34.133333 34.133333 0 0 0 0-68.266667H682.666667l-56.661334-68.266666H955.733333a68.266667 68.266667 0 0 0 68.266667-68.266667V68.266667a68.266667 68.266667 0 0 0-68.266667-68.266667zM512 819.2a34.133333 34.133333 0 1 1 34.133333-34.133333 34.133333 34.133333 0 0 1-34.133333 34.133333z m443.733333-136.533333H68.266667V68.266667h887.466666z" fill="#C6C4CD" p-id="8047"></path></svg>